<svg id="visual" viewBox="0 0 960 540" width="960" height="540" xmlns="http://www.w3.org/2000/svg" xmlns:xlink="http://www.w3.org/1999/xlink" version="1.1"><rect x="0" y="0" width="960" height="540" fill="#2E073F"></rect><defs><linearGradient id="grad1_0" x1="43.8%" y1="100%" x2="100%" y2="0%"><stop offset="14.444444444444446%" stop-color="#ad49e1" stop-opacity="1"></stop><stop offset="85.55555555555554%" stop-color="#ad49e1" stop-opacity="1"></stop></linearGradient></defs><defs><linearGradient id="grad1_1" x1="43.8%" y1="100%" x2="100%" y2="0%"><stop offset="14.444444444444446%" stop-color="#ad49e1" stop-opacity="1"></stop><stop offset="85.55555555555554%" stop-color="#6b268b" stop-opacity="1"></stop></linearGradient></defs><defs><linearGradient id="grad1_2" x1="43.8%" y1="100%" x2="100%" y2="0%"><stop offset="14.444444444444446%" stop-color="#2e073f" stop-opacity="1"></stop><stop offset="85.55555555555554%" stop-color="#6b268b" stop-opacity="1"></stop></linearGradient></defs><defs><linearGradient id="grad2_0" x1="0%" y1="100%" x2="56.3%" y2="0%"><stop offset="14.444444444444446%" stop-color="#ad49e1" stop-opacity="1"></stop><stop offset="85.55555555555554%" stop-color="#ad49e1" stop-opacity="1"></stop></linearGradient></defs><defs><linearGradient id="grad2_1" x1="0%" y1="100%" x2="56.3%" y2="0%"><stop offset="14.444444444444446%" stop-color="#6b268b" stop-opacity="1"></stop><stop offset="85.55555555555554%" stop-color="#ad49e1" stop-opacity="1"></stop></linearGradient></defs><defs><linearGradient id="grad2_2" x1="0%" y1="100%" x2="56.3%" y2="0%"><stop offset="14.444444444444446%" stop-color="#6b268b" stop-opacity="1"></stop><stop offset="85.55555555555554%" stop-color="#2e073f" stop-opacity="1"></stop></linearGradient></defs><g transform="translate(960, 540)"><path d="M-243 0C-239.2 -47 -235.5 -94 -210.4 -121.5C-185.4 -149 -139.1 -157.1 -100.5 -174.1C-61.9 -191.1 -30.9 -217 0 -243L0 0Z" fill="#4b1664"></path><path d="M-162 0C-159.5 -31.3 -157 -62.7 -140.3 -81C-123.6 -99.3 -92.7 -104.7 -67 -116C-41.3 -127.4 -20.6 -144.7 0 -162L0 0Z" fill="#8b37b5"></path><path d="M-81 0C-79.7 -15.7 -78.5 -31.3 -70.1 -40.5C-61.8 -49.7 -46.4 -52.4 -33.5 -58C-20.6 -63.7 -10.3 -72.3 0 -81L0 0Z" fill="#ad49e1"></path></g><g transform="translate(0, 0)"><path d="M243 0C214.7 29.6 186.5 59.2 169.7 98C153 136.8 147.9 184.7 121.5 210.4C95.1 236.1 47.6 239.6 0 243L0 0Z" fill="#4b1664"></path><path d="M162 0C143.2 19.7 124.3 39.5 113.2 65.3C102 91.2 98.6 123.2 81 140.3C63.4 157.4 31.7 159.7 0 162L0 0Z" fill="#8b37b5"></path><path d="M81 0C71.6 9.9 62.2 19.7 56.6 32.7C51 45.6 49.3 61.6 40.5 70.1C31.7 78.7 15.9 79.9 0 81L0 0Z" fill="#ad49e1"></path></g></svg>